# xmcd
#
# Track frame offsets:
#	150
#	9788
#	22296
#	35334
#	48149
#	61145
#	80466
#	96945
#	110247
#	122699
#	140975
#	164462
#	174852
#	189436
#	197416
#	207235
#
# Disc length: 2905 seconds
#
# Revision: 0
# Processed by: cddbd v1.5.1PL2 Copyright (c) Steve Scherf et al.
# Submitted via: FairStars CD Ripper 1.01
#
DISCID=d50b5710
DTITLE=Jug O' Lightnin' - Jug O' Lightnin'
DYEAR=2000
DGENRE=Country
TTITLE0=Cats Got Nuttin' To Do
TTITLE1=Tastes Like Chicken
TTITLE2=Guitar and TV (Never Hurts)
TTITLE3=Thrift Store Threads
TTITLE4=Mama, Can I Have Some More Milk?
TTITLE5=Seven Day Drizzle
TTITLE6=Ohio
TTITLE7=Arizona
TTITLE8=OOOHH
TTITLE9=Crash and Burn
TTITLE10=Middle of the Night B*7 Jam
TTITLE11=Drivin' X River
TTITLE12=Electric Violet Dye
TTITLE13=Shrimp
TTITLE14=Steel Rail Reaper
TTITLE15=Chopper
EXTD=
EXTT0=
EXTT1=
EXTT2=
EXTT3=
EXTT4=
EXTT5=
EXTT6=
EXTT7=
EXTT8=
EXTT9=
EXTT10=
EXTT11=
EXTT12=
EXTT13=
EXTT14=
EXTT15=
PLAYORDER=
